<mxfile host="65bd71144e">
    <diagram id="eQAi9FjX2uQirqG-jaGI" name="Page-1">
        <mxGraphModel dx="1004" dy="360" grid="1" gridSize="10" guides="1" tooltips="1" connect="1" arrows="1" fold="1" page="1" pageScale="1" pageWidth="850" pageHeight="1100" math="0" shadow="0">
            <root>
                <mxCell id="0"/>
                <mxCell id="1" parent="0"/>
                <mxCell id="2" value="Recipes" style="whiteSpace=wrap;html=1;" parent="1" vertex="1">
                    <mxGeometry x="40" y="50" width="120" height="60" as="geometry"/>
                </mxCell>
                <mxCell id="3" value="Ingredients" style="whiteSpace=wrap;html=1;" parent="1" vertex="1">
                    <mxGeometry x="250" y="50" width="120" height="60" as="geometry"/>
                </mxCell>
                <mxCell id="4" value="Steps" style="whiteSpace=wrap;html=1;" parent="1" vertex="1">
                    <mxGeometry x="480" y="50" width="120" height="60" as="geometry"/>
                </mxCell>
                <mxCell id="8" value="&lt;div&gt;&lt;span&gt;recipe_id (pk)&lt;/span&gt;&lt;/div&gt;" style="rounded=1;whiteSpace=wrap;html=1;align=left;" parent="1" vertex="1">
                    <mxGeometry x="40" y="120" width="120" height="40" as="geometry"/>
                </mxCell>
                <mxCell id="9" style="edgeStyle=orthogonalEdgeStyle;rounded=0;orthogonalLoop=1;jettySize=auto;html=1;exitX=0.5;exitY=1;exitDx=0;exitDy=0;" parent="1" source="8" target="8" edge="1">
                    <mxGeometry relative="1" as="geometry"/>
                </mxCell>
                <mxCell id="10" value="ingredient_id (pk)" style="rounded=1;whiteSpace=wrap;html=1;align=left;" parent="1" vertex="1">
                    <mxGeometry x="250" y="120" width="120" height="40" as="geometry"/>
                </mxCell>
                <mxCell id="11" value="step_id (pk)" style="rounded=1;whiteSpace=wrap;html=1;align=left;" parent="1" vertex="1">
                    <mxGeometry x="480" y="120" width="120" height="40" as="geometry"/>
                </mxCell>
                <mxCell id="12" value="Recipe" style="whiteSpace=wrap;html=1;" parent="1" vertex="1">
                    <mxGeometry x="710" y="50" width="120" height="60" as="geometry"/>
                </mxCell>
                <mxCell id="14" value="&lt;div&gt;&lt;span&gt;recipe_name&lt;/span&gt;&lt;br&gt;&lt;/div&gt;" style="rounded=1;whiteSpace=wrap;html=1;align=left;" parent="1" vertex="1">
                    <mxGeometry x="40" y="170" width="120" height="40" as="geometry"/>
                </mxCell>
                <mxCell id="15" value="ingredient_name" style="rounded=1;whiteSpace=wrap;html=1;align=left;" parent="1" vertex="1">
                    <mxGeometry x="250" y="170" width="120" height="40" as="geometry"/>
                </mxCell>
                <mxCell id="16" value="quantity" style="rounded=1;whiteSpace=wrap;html=1;align=left;" parent="1" vertex="1">
                    <mxGeometry x="250" y="220" width="120" height="40" as="geometry"/>
                </mxCell>
                <mxCell id="17" value="step_number" style="rounded=1;whiteSpace=wrap;html=1;align=left;" parent="1" vertex="1">
                    <mxGeometry x="480" y="170" width="120" height="40" as="geometry"/>
                </mxCell>
                <mxCell id="19" value="step_instructions" style="rounded=1;whiteSpace=wrap;html=1;align=left;" parent="1" vertex="1">
                    <mxGeometry x="480" y="220" width="120" height="40" as="geometry"/>
                </mxCell>
                <mxCell id="25" style="edgeStyle=orthogonalEdgeStyle;rounded=0;orthogonalLoop=1;jettySize=auto;html=1;exitX=0;exitY=0.5;exitDx=0;exitDy=0;entryX=0;entryY=0.5;entryDx=0;entryDy=0;" parent="1" source="20" target="8" edge="1">
                    <mxGeometry relative="1" as="geometry">
                        <Array as="points">
                            <mxPoint x="680" y="140"/>
                            <mxPoint x="680" y="20"/>
                            <mxPoint x="20" y="20"/>
                            <mxPoint x="20" y="140"/>
                        </Array>
                    </mxGeometry>
                </mxCell>
                <mxCell id="20" value="recipe_id (pk)" style="rounded=1;whiteSpace=wrap;html=1;align=left;" parent="1" vertex="1">
                    <mxGeometry x="710" y="120" width="120" height="40" as="geometry"/>
                </mxCell>
                <mxCell id="23" style="edgeStyle=orthogonalEdgeStyle;rounded=0;orthogonalLoop=1;jettySize=auto;html=1;exitX=0;exitY=0.5;exitDx=0;exitDy=0;entryX=0;entryY=0.5;entryDx=0;entryDy=0;" parent="1" source="21" target="11" edge="1">
                    <mxGeometry relative="1" as="geometry">
                        <mxPoint x="410" y="110" as="targetPoint"/>
                        <Array as="points">
                            <mxPoint x="660" y="190"/>
                            <mxPoint x="660" y="350"/>
                            <mxPoint x="430" y="350"/>
                            <mxPoint x="430" y="140"/>
                        </Array>
                    </mxGeometry>
                </mxCell>
                <mxCell id="21" value="step_id (fk)" style="rounded=1;whiteSpace=wrap;html=1;align=left;" parent="1" vertex="1">
                    <mxGeometry x="710" y="170" width="120" height="40" as="geometry"/>
                </mxCell>
                <mxCell id="24" style="edgeStyle=orthogonalEdgeStyle;rounded=0;orthogonalLoop=1;jettySize=auto;html=1;exitX=0;exitY=0.5;exitDx=0;exitDy=0;entryX=0;entryY=0.5;entryDx=0;entryDy=0;" parent="1" source="22" target="10" edge="1">
                    <mxGeometry relative="1" as="geometry">
                        <Array as="points">
                            <mxPoint x="690" y="240"/>
                            <mxPoint x="690" y="390"/>
                            <mxPoint x="210" y="390"/>
                            <mxPoint x="210" y="140"/>
                        </Array>
                    </mxGeometry>
                </mxCell>
                <mxCell id="22" value="ingredient_id (fk)" style="rounded=1;whiteSpace=wrap;html=1;align=left;" parent="1" vertex="1">
                    <mxGeometry x="710" y="220" width="120" height="40" as="geometry"/>
                </mxCell>
                <mxCell id="26" value="&lt;div&gt;&lt;span&gt;created_by&lt;/span&gt;&lt;br&gt;&lt;/div&gt;" style="rounded=1;whiteSpace=wrap;html=1;align=left;" parent="1" vertex="1">
                    <mxGeometry x="40" y="220" width="120" height="40" as="geometry"/>
                </mxCell>
                <mxCell id="27" value="&lt;div&gt;&lt;span&gt;total_time&lt;/span&gt;&lt;br&gt;&lt;/div&gt;" style="rounded=1;whiteSpace=wrap;html=1;align=left;" parent="1" vertex="1">
                    <mxGeometry x="40" y="270" width="120" height="40" as="geometry"/>
                </mxCell>
                <mxCell id="33" style="edgeStyle=orthogonalEdgeStyle;rounded=0;orthogonalLoop=1;jettySize=auto;html=1;exitX=1;exitY=0.5;exitDx=0;exitDy=0;entryX=0;entryY=0.5;entryDx=0;entryDy=0;" edge="1" parent="1" source="29" target="31">
                    <mxGeometry relative="1" as="geometry">
                        <Array as="points">
                            <mxPoint x="880" y="290"/>
                            <mxPoint x="880" y="140"/>
                        </Array>
                    </mxGeometry>
                </mxCell>
                <mxCell id="29" value="unit_id (fk)" style="rounded=1;whiteSpace=wrap;html=1;align=left;" vertex="1" parent="1">
                    <mxGeometry x="710" y="270" width="120" height="40" as="geometry"/>
                </mxCell>
                <mxCell id="30" value="Units" style="whiteSpace=wrap;html=1;" vertex="1" parent="1">
                    <mxGeometry x="910" y="50" width="120" height="60" as="geometry"/>
                </mxCell>
                <mxCell id="31" value="unit_id (pk)" style="rounded=1;whiteSpace=wrap;html=1;align=left;" vertex="1" parent="1">
                    <mxGeometry x="910" y="120" width="120" height="40" as="geometry"/>
                </mxCell>
                <mxCell id="32" value="measurement" style="rounded=1;whiteSpace=wrap;html=1;align=left;" vertex="1" parent="1">
                    <mxGeometry x="910" y="170" width="120" height="40" as="geometry"/>
                </mxCell>
            </root>
        </mxGraphModel>
    </diagram>
</mxfile>